<?xml version="1.0" encoding="UTF-8" standalone="no"?>
<!DOCTYPE svg PUBLIC "-//W3C//DTD SVG 1.1//EN" "http://www.w3.org/Graphics/SVG/1.1/DTD/svg11.dtd">
<svg xmlns="http://www.w3.org/2000/svg" version="1.1" viewBox="0.00 0.00 256.00 256.00" width="128" height="128">
<g stroke-width="2.00" fill="none" stroke-linecap="butt">
<path stroke="#ffa680" vector-effect="non-scaling-stroke" d="
  M 78.59 146.12
  C 78.19 143.54 82.67 143.54 84.26 143.56
  Q 94.99 143.72 115.50 143.31
  Q 132.15 142.98 153.26 142.80
  Q 158.27 142.76 160.98 142.41
  C 168.05 141.50 174.87 136.24 179.09 130.74
  Q 181.17 128.02 183.16 122.34
  Q 186.13 113.87 186.28 113.44
  A 4.38 4.38 0.0 0 0 186.35 110.90
  C 182.91 98.31 175.08 86.57 163.84 79.63
  C 149.72 70.91 133.22 69.18 117.74 75.55
  Q 100.69 82.57 92.20 98.67
  Q 90.36 102.16 89.06 104.94
  A 1.14 1.14 0.0 0 1 87.65 105.53
  Q 86.27 105.03 82.58 103.49
  C 77.00 101.15 70.36 101.68 64.66 104.72
  Q 50.56 112.22 52.37 130.20
  A 0.76 0.75 85.7 0 1 51.66 131.03
  Q 45.11 131.35 39.08 134.47
  C 26.10 141.20 20.03 154.13 21.44 168.85
  A 0.82 0.82 0.0 0 0 22.17 169.58
  Q 27.44 170.07 31.00 170.06
  Q 62.26 169.96 165.72 170.01
  A 2.03 2.02 10.2 0 0 167.62 168.70
  C 168.99 165.11 170.27 159.93 168.99 156.11
  C 166.64 149.10 161.34 148.17 154.19 148.08
  Q 140.21 147.92 116.60 147.38
  C 104.93 147.11 91.14 147.68 79.16 146.66
  A 0.65 0.64 88.2 0 1 78.59 146.12"
/>
<path stroke="#ffa680" vector-effect="non-scaling-stroke" d="
  M 172.85 169.12
  A 0.69 0.69 0.0 0 0 173.51 169.99
  L 232.90 169.99
  A 1.58 1.56 -83.8 0 0 234.43 168.75
  Q 238.76 148.96 228.90 133.71
  C 221.09 121.64 206.51 113.87 192.51 114.31
  Q 190.34 114.38 189.64 116.88
  C 187.40 124.94 184.64 130.86 188.37 137.47
  C 190.27 140.83 192.67 141.95 196.51 142.35
  Q 206.32 143.37 214.29 143.45
  A 1.43 1.43 0.0 0 1 215.64 145.30
  L 215.62 145.37
  A 2.64 2.63 5.9 0 1 213.34 147.21
  Q 205.65 147.86 200.09 147.99
  Q 194.16 148.13 190.27 149.64
  Q 176.90 154.82 172.85 169.12"
/>
</g>
<path fill="#ff500a" d="
  M 251.1585 226.4565
  A 25.84 25.84 0.0 0 1 225.2734 252.2513
  L 28.7137 251.9083
  A 25.84 25.84 0.0 0 1 2.9189 226.0232
  L 3.2615 29.7035
  A 25.84 25.84 0.0 0 1 29.1466 3.9087
  L 225.7063 4.2517
  A 25.84 25.84 0.0 0 1 251.5011 30.1368
  L 251.1585 226.4565
  Z
  M 78.59 146.12
  C 78.19 143.54 82.67 143.54 84.26 143.56
  Q 94.99 143.72 115.50 143.31
  Q 132.15 142.98 153.26 142.80
  Q 158.27 142.76 160.98 142.41
  C 168.05 141.50 174.87 136.24 179.09 130.74
  Q 181.17 128.02 183.16 122.34
  Q 186.13 113.87 186.28 113.44
  A 4.38 4.38 0.0 0 0 186.35 110.90
  C 182.91 98.31 175.08 86.57 163.84 79.63
  C 149.72 70.91 133.22 69.18 117.74 75.55
  Q 100.69 82.57 92.20 98.67
  Q 90.36 102.16 89.06 104.94
  A 1.14 1.14 0.0 0 1 87.65 105.53
  Q 86.27 105.03 82.58 103.49
  C 77.00 101.15 70.36 101.68 64.66 104.72
  Q 50.56 112.22 52.37 130.20
  A 0.76 0.75 85.7 0 1 51.66 131.03
  Q 45.11 131.35 39.08 134.47
  C 26.10 141.20 20.03 154.13 21.44 168.85
  A 0.82 0.82 0.0 0 0 22.17 169.58
  Q 27.44 170.07 31.00 170.06
  Q 62.26 169.96 165.72 170.01
  A 2.03 2.02 10.2 0 0 167.62 168.70
  C 168.99 165.11 170.27 159.93 168.99 156.11
  C 166.64 149.10 161.34 148.17 154.19 148.08
  Q 140.21 147.92 116.60 147.38
  C 104.93 147.11 91.14 147.68 79.16 146.66
  A 0.65 0.64 88.2 0 1 78.59 146.12
  Z
  M 172.85 169.12
  A 0.69 0.69 0.0 0 0 173.51 169.99
  L 232.90 169.99
  A 1.58 1.56 -83.8 0 0 234.43 168.75
  Q 238.76 148.96 228.90 133.71
  C 221.09 121.64 206.51 113.87 192.51 114.31
  Q 190.34 114.38 189.64 116.88
  C 187.40 124.94 184.64 130.86 188.37 137.47
  C 190.27 140.83 192.67 141.95 196.51 142.35
  Q 206.32 143.37 214.29 143.45
  A 1.43 1.43 0.0 0 1 215.64 145.30
  L 215.62 145.37
  A 2.64 2.63 5.9 0 1 213.34 147.21
  Q 205.65 147.86 200.09 147.99
  Q 194.16 148.13 190.27 149.64
  Q 176.90 154.82 172.85 169.12
  Z"
/>
<path fill="#fffbf5" d="
  M 78.59 146.12
  A 0.65 0.64 88.2 0 0 79.16 146.66
  C 91.14 147.68 104.93 147.11 116.60 147.38
  Q 140.21 147.92 154.19 148.08
  C 161.34 148.17 166.64 149.10 168.99 156.11
  C 170.27 159.93 168.99 165.11 167.62 168.70
  A 2.03 2.02 10.2 0 1 165.72 170.01
  Q 62.26 169.96 31.00 170.06
  Q 27.44 170.07 22.17 169.58
  A 0.82 0.82 0.0 0 1 21.44 168.85
  C 20.03 154.13 26.10 141.20 39.08 134.47
  Q 45.11 131.35 51.66 131.03
  A 0.76 0.75 85.7 0 0 52.37 130.20
  Q 50.56 112.22 64.66 104.72
  C 70.36 101.68 77.00 101.15 82.58 103.49
  Q 86.27 105.03 87.65 105.53
  A 1.14 1.14 0.0 0 0 89.06 104.94
  Q 90.36 102.16 92.20 98.67
  Q 100.69 82.57 117.74 75.55
  C 133.22 69.18 149.72 70.91 163.84 79.63
  C 175.08 86.57 182.91 98.31 186.35 110.90
  A 4.38 4.38 0.0 0 1 186.28 113.44
  Q 186.13 113.87 183.16 122.34
  Q 181.17 128.02 179.09 130.74
  C 174.87 136.24 168.05 141.50 160.98 142.41
  Q 158.27 142.76 153.26 142.80
  Q 132.15 142.98 115.50 143.31
  Q 94.99 143.72 84.26 143.56
  C 82.67 143.54 78.19 143.54 78.59 146.12
  Z"
/>
<path fill="#fffbf5" d="
  M 172.85 169.12
  Q 176.90 154.82 190.27 149.64
  Q 194.16 148.13 200.09 147.99
  Q 205.65 147.86 213.34 147.21
  A 2.64 2.63 5.9 0 0 215.62 145.37
  L 215.64 145.30
  A 1.43 1.43 0.0 0 0 214.29 143.45
  Q 206.32 143.37 196.51 142.35
  C 192.67 141.95 190.27 140.83 188.37 137.47
  C 184.64 130.86 187.40 124.94 189.64 116.88
  Q 190.34 114.38 192.51 114.31
  C 206.51 113.87 221.09 121.64 228.90 133.71
  Q 238.76 148.96 234.43 168.75
  A 1.58 1.56 -83.8 0 1 232.90 169.99
  L 173.51 169.99
  A 0.69 0.69 0.0 0 1 172.85 169.12
  Z"
/>
</svg>