<?xml version="1.0" encoding="UTF-8" standalone="no"?>
<!DOCTYPE svg PUBLIC "-//W3C//DTD SVG 1.1//EN" "http://www.w3.org/Graphics/SVG/1.1/DTD/svg11.dtd">
<svg xmlns="http://www.w3.org/2000/svg" version="1.1" viewBox="0.00 0.00 192.00 192.00" width="128" height="128">
<g stroke-width="2.00" fill="none" stroke-linecap="butt">
<path stroke="#435039" vector-effect="non-scaling-stroke" d="
  M 102.29 23.02
  Q 101.62 24.83 100.42 26.11"
/>
<path stroke="#ab9996" vector-effect="non-scaling-stroke" d="
  M 100.42 26.11
  C 39.79 23.31 3.64 91.92 41.36 140.13
  Q 48.62 149.42 58.54 155.40"
/>
<path stroke="#5c342e" vector-effect="non-scaling-stroke" d="
  M 58.54 155.40
  Q 62.32 157.17 65.92 159.19
  Q 70.90 161.98 73.36 162.81
  C 84.85 166.69 111.00 170.63 118.85 159.01
  Q 120.27 156.90 123.74 150.96
  Q 125.39 148.15 129.53 148.30"
/>
<path stroke="#ab9996" vector-effect="non-scaling-stroke" d="
  M 129.53 148.30
  L 134.22 155.00
  A 0.48 0.48 0.0 0 0 134.88 155.13
  C 145.70 147.99 154.22 138.20 159.82 126.50
  Q 172.21 100.59 162.33 71.76"
/>
<path stroke="#555f37" vector-effect="non-scaling-stroke" d="
  M 162.33 71.76
  Q 163.84 71.68 165.32 70.45"
/>
<path stroke="#b2c996" vector-effect="non-scaling-stroke" d="
  M 120.74 30.31
  L 127.76 33.57"
/>
<path stroke="#d6e397" vector-effect="non-scaling-stroke" d="
  M 127.76 33.57
  Q 133.08 36.24 137.89 39.71
  C 138.86 40.41 138.43 41.52 138.62 42.65
  Q 139.21 46.09 143.69 45.68
  A 2.78 2.77 -22.8 0 1 146.05 46.64
  L 153.47 55.29"
/>
<path stroke="#a3bf99" vector-effect="non-scaling-stroke" d="
  M 153.47 55.29
  Q 158.81 63.03 162.33 71.76"
/>
<path stroke="#aa9490" vector-effect="non-scaling-stroke" d="
  M 129.53 148.30
  Q 123.78 141.35 115.81 137.32"
/>
<path stroke="#a3908d" vector-effect="non-scaling-stroke" d="
  M 115.81 137.32
  C 104.74 132.02 93.52 131.86 81.89 135.25"
/>
<path stroke="#91af9b" vector-effect="non-scaling-stroke" d="
  M 81.89 135.25
  Q 77.83 127.52 77.48 123.75
  Q 77.11 119.74 76.65 115.95
  A 0.41 0.41 0.0 0 1 77.25 115.53
  Q 89.81 122.06 103.91 120.06"
/>
<path stroke="#a3bf99" vector-effect="non-scaling-stroke" d="
  M 103.91 120.06
  L 110.20 118.71"
/>
<path stroke="#b2c996" vector-effect="non-scaling-stroke" d="
  M 110.20 118.71
  L 113.50 117.40"
/>
<path stroke="#c3d597" vector-effect="non-scaling-stroke" d="
  M 113.50 117.40
  L 121.50 113.28"
/>
<path stroke="#d6e397" vector-effect="non-scaling-stroke" d="
  M 121.50 113.28
  Q 133.45 105.45 138.28 91.92
  A 0.67 0.66 -62.7 0 0 138.04 91.15
  Q 124.35 81.37 107.37 83.24"
/>
<path stroke="#c3d597" vector-effect="non-scaling-stroke" d="
  M 107.37 83.24
  L 101.17 84.60"
/>
<path stroke="#b2c996" vector-effect="non-scaling-stroke" d="
  M 101.17 84.60
  L 97.06 85.73"
/>
<path stroke="#b1cea8" vector-effect="non-scaling-stroke" d="
  M 97.06 85.73
  L 98.57 77.81"
/>
<path stroke="#c3d597" vector-effect="non-scaling-stroke" d="
  M 98.57 77.81
  Q 99.60 73.96 98.78 70.46"
/>
<path stroke="#d6e397" vector-effect="non-scaling-stroke" d="
  M 98.78 70.46
  Q 98.68 64.53 96.61 58.82
  Q 93.84 51.14 88.81 45.09
  A 0.66 0.65 56.0 0 0 88.01 44.93
  Q 64.95 56.37 62.33 81.92"
/>
<path stroke="#c3d597" vector-effect="non-scaling-stroke" d="
  M 62.33 81.92
  L 63.11 93.09"
/>
<path stroke="#b1cea8" vector-effect="non-scaling-stroke" d="
  M 63.11 93.09
  Q 63.53 95.40 64.44 96.74"
/>
<path stroke="#9fc3af" vector-effect="non-scaling-stroke" d="
  M 64.44 96.74
  Q 64.41 99.22 65.65 100.75"
/>
<path stroke="#91af9b" vector-effect="non-scaling-stroke" d="
  M 65.65 100.75
  L 68.51 106.73
  Q 68.53 106.77 68.55 106.81
  L 72.38 112.20
  A 2.47 2.46 28.5 0 1 72.83 113.71
  Q 72.31 125.92 78.18 136.73"
/>
<path stroke="#a3908d" vector-effect="non-scaling-stroke" d="
  M 78.18 136.73
  Q 69.59 141.06 63.84 147.87"
/>
<path stroke="#aa9490" vector-effect="non-scaling-stroke" d="
  M 63.84 147.87
  Q 60.58 151.28 58.54 155.40"
/>
<path stroke="#4a8039" vector-effect="non-scaling-stroke" d="
  M 123.48 27.92
  L 120.74 30.31"
/>
<path stroke="#91af9b" vector-effect="non-scaling-stroke" d="
  M 120.74 30.31
  Q 110.97 26.78 100.42 26.11"
/>
<path stroke="#3b4730" vector-effect="non-scaling-stroke" d="
  M 81.89 135.25
  L 78.18 136.73"
/>
<path stroke="#7ca635" vector-effect="non-scaling-stroke" d="
  M 113.50 117.40
  Q 108.58 106.59 103.57 95.74
  Q 100.99 90.15 101.17 84.60"
/>
<path stroke="#7faa38" vector-effect="non-scaling-stroke" d="
  M 155.96 53.22
  L 153.47 55.29"
/>
<path stroke="#9fc036" vector-effect="non-scaling-stroke" d="
  M 121.50 113.28
  C 116.72 103.27 112.91 92.88 107.37 83.24"
/>
<path stroke="#7bab47" vector-effect="non-scaling-stroke" d="
  M 98.57 77.81
  C 96.37 79.06 94.05 80.32 91.66 81.10
  Q 78.03 85.59 64.37 90.09
  A 0.70 0.70 0.0 0 0 63.88 90.70
  Q 63.78 91.91 63.11 93.09"
/>
<path stroke="#6a9f46" vector-effect="non-scaling-stroke" d="
  M 97.06 85.73
  L 95.48 90.51"
/>
<path stroke="#5b9549" vector-effect="non-scaling-stroke" d="
  M 95.48 90.51
  L 93.44 93.90"
/>
<path stroke="#57995f" vector-effect="non-scaling-stroke" d="
  M 93.44 93.90
  Q 87.11 94.22 81.03 96.64
  C 75.09 99.01 71.10 98.17 64.44 96.74"
/>
<path stroke="#377a52" vector-effect="non-scaling-stroke" d="
  M 88.04 101.74
  L 82.42 106.88
  A 1.18 1.14 23.8 0 1 81.61 107.18
  C 75.33 107.03 70.95 103.58 65.65 100.75"
/>
<path stroke="#5c9037" vector-effect="non-scaling-stroke" d="
  M 110.20 118.71
  Q 100.71 105.83 95.48 90.51"
/>
<path stroke="#3b763c" vector-effect="non-scaling-stroke" d="
  M 103.91 120.06
  Q 95.17 111.44 88.04 101.74"
/>
<path stroke="#488a50" vector-effect="non-scaling-stroke" d="
  M 88.04 101.74
  L 93.44 93.90"
/>
<path stroke="#9fc036" vector-effect="non-scaling-stroke" d="
  M 98.78 70.46
  Q 98.33 69.30 98.35 67.87
  A 0.28 0.27 75.9 0 0 97.94 67.62
  Q 81.30 77.01 62.33 81.92"
/>
<path stroke="#8fb435" vector-effect="non-scaling-stroke" d="
  M 132.57 32.17
  L 127.76 33.57"
/>
<path stroke="#532c25" vector-effect="non-scaling-stroke" d="
  M 115.81 137.32
  C 105.76 148.13 94.11 157.50 78.45 153.36
  Q 76.74 152.91 71.17 150.55
  Q 67.44 148.97 63.84 147.87"
/>
</g>
<path fill="#5d3934" d="
  M 102.29 23.02
  Q 101.62 24.83 100.42 26.11
  C 39.79 23.31 3.64 91.92 41.36 140.13
  Q 48.62 149.42 58.54 155.40
  Q 62.32 157.17 65.92 159.19
  Q 70.90 161.98 73.36 162.81
  C 84.85 166.69 111.00 170.63 118.85 159.01
  Q 120.27 156.90 123.74 150.96
  Q 125.39 148.15 129.53 148.30
  L 134.22 155.00
  A 0.48 0.48 0.0 0 0 134.88 155.13
  C 145.70 147.99 154.22 138.20 159.82 126.50
  Q 172.21 100.59 162.33 71.76
  Q 163.84 71.68 165.32 70.45
  Q 176.61 102.38 161.45 130.97
  Q 153.86 145.31 139.70 155.89
  Q 126.06 166.08 109.38 169.04
  Q 83.62 173.63 59.82 160.47
  Q 57.79 159.35 52.82 155.72
  C 18.43 130.65 12.53 81.14 40.12 48.84
  C 55.75 30.54 78.25 21.03 102.29 23.02
  Z"
/>
<path fill="#29663e" d="
  M 123.48 27.92
  L 120.74 30.31
  Q 110.97 26.78 100.42 26.11
  Q 101.62 24.83 102.29 23.02
  Q 110.24 23.74 118.86 26.14
  Q 121.60 26.91 123.48 27.92
  Z"
/>
<path fill="#f9f8f8" d="
  M 100.42 26.11
  Q 110.97 26.78 120.74 30.31
  L 127.76 33.57
  Q 133.08 36.24 137.89 39.71
  C 138.86 40.41 138.43 41.52 138.62 42.65
  Q 139.21 46.09 143.69 45.68
  A 2.78 2.77 -22.8 0 1 146.05 46.64
  L 153.47 55.29
  Q 158.81 63.03 162.33 71.76
  Q 172.21 100.59 159.82 126.50
  C 154.22 138.20 145.70 147.99 134.88 155.13
  A 0.48 0.48 0.0 0 1 134.22 155.00
  L 129.53 148.30
  Q 123.78 141.35 115.81 137.32
  C 104.74 132.02 93.52 131.86 81.89 135.25
  Q 77.83 127.52 77.48 123.75
  Q 77.11 119.74 76.65 115.95
  A 0.41 0.41 0.0 0 1 77.25 115.53
  Q 89.81 122.06 103.91 120.06
  L 110.20 118.71
  L 113.50 117.40
  L 121.50 113.28
  Q 133.45 105.45 138.28 91.92
  A 0.67 0.66 -62.7 0 0 138.04 91.15
  Q 124.35 81.37 107.37 83.24
  L 101.17 84.60
  L 97.06 85.73
  L 98.57 77.81
  Q 99.60 73.96 98.78 70.46
  Q 98.68 64.53 96.61 58.82
  Q 93.84 51.14 88.81 45.09
  A 0.66 0.65 56.0 0 0 88.01 44.93
  Q 64.95 56.37 62.33 81.92
  L 63.11 93.09
  Q 63.53 95.40 64.44 96.74
  Q 64.41 99.22 65.65 100.75
  L 68.51 106.73
  Q 68.53 106.77 68.55 106.81
  L 72.38 112.20
  A 2.47 2.46 28.5 0 1 72.83 113.71
  Q 72.31 125.92 78.18 136.73
  Q 69.59 141.06 63.84 147.87
  Q 60.58 151.28 58.54 155.40
  Q 48.62 149.42 41.36 140.13
  C 3.64 91.92 39.79 23.31 100.42 26.11
  Z"
/>
<path fill="#6b9a34" d="
  M 123.48 27.92
  L 132.57 32.17
  L 127.76 33.57
  L 120.74 30.31
  L 123.48 27.92
  Z"
/>
<path fill="#b2ce36" d="
  M 132.57 32.17
  L 140.54 37.49
  A 1.46 1.44 59.3 0 0 141.46 37.73
  Q 146.61 37.31 146.71 42.04
  A 1.52 1.49 21.0 0 0 147.19 43.09
  Q 152.09 47.66 155.96 53.22
  L 153.47 55.29
  L 146.05 46.64
  A 2.78 2.77 -22.8 0 0 143.69 45.68
  Q 139.21 46.09 138.62 42.65
  C 138.43 41.52 138.86 40.41 137.89 39.71
  Q 133.08 36.24 127.76 33.57
  L 132.57 32.17
  Z"
/>
<path fill="#b2ce36" d="
  M 98.78 70.46
  Q 98.33 69.30 98.35 67.87
  A 0.28 0.27 75.9 0 0 97.94 67.62
  Q 81.30 77.01 62.33 81.92
  Q 64.95 56.37 88.01 44.93
  A 0.66 0.65 56.0 0 1 88.81 45.09
  Q 93.84 51.14 96.61 58.82
  Q 98.68 64.53 98.78 70.46
  Z"
/>
<path fill="#4c853a" d="
  M 155.96 53.22
  Q 161.85 61.07 165.32 70.45
  Q 163.84 71.68 162.33 71.76
  Q 158.81 63.03 153.47 55.29
  L 155.96 53.22
  Z"
/>
<path fill="#8cb235" d="
  M 98.78 70.46
  Q 99.60 73.96 98.57 77.81
  C 96.37 79.06 94.05 80.32 91.66 81.10
  Q 78.03 85.59 64.37 90.09
  A 0.70 0.70 0.0 0 0 63.88 90.70
  Q 63.78 91.91 63.11 93.09
  L 62.33 81.92
  Q 81.30 77.01 97.94 67.62
  A 0.28 0.27 75.9 0 1 98.35 67.87
  Q 98.33 69.30 98.78 70.46
  Z"
/>
<path fill="#69a458" d="
  M 98.57 77.81
  L 97.06 85.73
  L 95.48 90.51
  L 93.44 93.90
  Q 87.11 94.22 81.03 96.64
  C 75.09 99.01 71.10 98.17 64.44 96.74
  Q 63.53 95.40 63.11 93.09
  Q 63.78 91.91 63.88 90.70
  A 0.70 0.70 0.0 0 1 64.37 90.09
  Q 78.03 85.59 91.66 81.10
  C 94.05 80.32 96.37 79.06 98.57 77.81
  Z"
/>
<path fill="#b2ce36" d="
  M 121.50 113.28
  C 116.72 103.27 112.91 92.88 107.37 83.24
  Q 124.35 81.37 138.04 91.15
  A 0.67 0.66 -62.7 0 1 138.28 91.92
  Q 133.45 105.45 121.50 113.28
  Z"
/>
<path fill="#8cb235" d="
  M 107.37 83.24
  C 112.91 92.88 116.72 103.27 121.50 113.28
  L 113.50 117.40
  Q 108.58 106.59 103.57 95.74
  Q 100.99 90.15 101.17 84.60
  L 107.37 83.24
  Z"
/>
<path fill="#6b9a34" d="
  M 101.17 84.60
  Q 100.99 90.15 103.57 95.74
  Q 108.58 106.59 113.50 117.40
  L 110.20 118.71
  Q 100.71 105.83 95.48 90.51
  L 97.06 85.73
  L 101.17 84.60
  Z"
/>
<path fill="#4c853a" d="
  M 95.48 90.51
  Q 100.71 105.83 110.20 118.71
  L 103.91 120.06
  Q 95.17 111.44 88.04 101.74
  L 93.44 93.90
  L 95.48 90.51
  Z"
/>
<path fill="#448e65" d="
  M 93.44 93.90
  L 88.04 101.74
  L 82.42 106.88
  A 1.18 1.14 23.8 0 1 81.61 107.18
  C 75.33 107.03 70.95 103.58 65.65 100.75
  Q 64.41 99.22 64.44 96.74
  C 71.10 98.17 75.09 99.01 81.03 96.64
  Q 87.11 94.22 93.44 93.90
  Z"
/>
<path fill="#29663e" d="
  M 88.04 101.74
  Q 95.17 111.44 103.91 120.06
  Q 89.81 122.06 77.25 115.53
  A 0.41 0.41 0.0 0 0 76.65 115.95
  Q 77.11 119.74 77.48 123.75
  Q 77.83 127.52 81.89 135.25
  L 78.18 136.73
  Q 72.31 125.92 72.83 113.71
  A 2.47 2.46 28.5 0 0 72.38 112.20
  L 68.55 106.81
  Q 68.53 106.77 68.51 106.73
  L 65.65 100.75
  C 70.95 103.58 75.33 107.03 81.61 107.18
  A 1.18 1.14 23.8 0 0 82.42 106.88
  L 88.04 101.74
  Z"
/>
<path fill="#4c2822" d="
  M 115.81 137.32
  C 105.76 148.13 94.11 157.50 78.45 153.36
  Q 76.74 152.91 71.17 150.55
  Q 67.44 148.97 63.84 147.87
  Q 69.59 141.06 78.18 136.73
  L 81.89 135.25
  C 93.52 131.86 104.74 132.02 115.81 137.32
  Z"
/>
<path fill="#5a2f28" d="
  M 115.81 137.32
  Q 123.78 141.35 129.53 148.30
  Q 125.39 148.15 123.74 150.96
  Q 120.27 156.90 118.85 159.01
  C 111.00 170.63 84.85 166.69 73.36 162.81
  Q 70.90 161.98 65.92 159.19
  Q 62.32 157.17 58.54 155.40
  Q 60.58 151.28 63.84 147.87
  Q 67.44 148.97 71.17 150.55
  Q 76.74 152.91 78.45 153.36
  C 94.11 157.50 105.76 148.13 115.81 137.32
  Z"
/>
</svg>