<?xml version="1.0" encoding="UTF-8" standalone="no"?>
<!DOCTYPE svg PUBLIC "-//W3C//DTD SVG 1.1//EN" "http://www.w3.org/Graphics/SVG/1.1/DTD/svg11.dtd">
<svg xmlns="http://www.w3.org/2000/svg" version="1.1" viewBox="0.00 0.00 256.00 256.00" width="128" height="128">
<path stroke="#92762d" stroke-width="2.00" fill="none" stroke-linecap="butt" vector-effect="non-scaling-stroke" d="
  M 106.88 171.98
  C 105.46 172.12 105.02 173.36 104.90 174.66
  Q 104.48 179.28 104.58 185.32
  C 104.64 188.98 104.18 195.53 99.48 196.37
  C 95.47 197.08 92.58 193.79 92.53 189.74
  Q 92.24 161.95 92.30 116.75
  Q 92.34 90.76 92.25 85.00
  C 92.10 75.66 92.22 68.01 101.36 63.11
  Q 105.33 60.98 109.03 60.70
  Q 122.17 59.72 136.30 60.84
  C 142.65 61.35 148.86 62.92 153.21 65.85
  C 158.78 69.61 162.83 72.26 166.79 78.04
  Q 176.07 91.56 175.30 107.45
  C 175.06 112.38 173.88 115.72 171.98 120.24
  Q 164.97 136.93 148.60 143.87
  C 141.40 146.92 133.46 147.33 125.26 147.19
  C 121.19 147.12 118.03 147.25 117.13 142.92
  Q 116.62 140.48 117.05 137.43
  C 117.52 134.15 119.69 135.20 122.00 134.64
  Q 122.37 134.55 130.68 134.57
  Q 136.86 134.59 139.31 134.07
  Q 149.46 131.92 156.29 124.07
  Q 158.78 121.21 161.28 114.88
  C 166.26 102.29 162.17 88.82 152.31 79.98
  C 143.62 72.20 135.20 72.76 122.99 72.91
  Q 117.95 72.98 111.32 76.62
  A 4.67 4.66 -86.2 0 0 109.84 77.92
  Q 105.93 83.23 104.73 87.50
  C 101.97 97.27 108.42 105.31 117.33 109.66
  C 122.27 112.06 131.39 106.13 126.64 100.02
  C 124.94 97.83 119.76 96.93 116.97 95.32
  A 1.58 1.55 2.3 0 1 116.34 94.65
  Q 115.98 93.94 116.43 91.42
  Q 117.05 87.96 117.69 87.12
  A 2.17 2.12 5.2 0 1 118.50 86.46
  Q 119.94 85.78 123.26 85.48
  C 128.82 84.99 135.55 84.71 140.07 86.70
  C 144.23 88.52 148.36 91.98 150.11 96.49
  Q 155.01 109.17 144.31 118.88
  Q 140.81 122.05 135.63 122.38
  Q 130.42 122.71 120.00 122.74
  C 115.25 122.76 111.70 125.53 108.53 128.98
  Q 104.05 133.85 104.27 140.77
  C 104.43 145.95 106.65 153.07 111.40 155.78
  C 117.62 159.33 122.35 159.47 130.98 159.42
  Q 152.93 159.28 168.11 146.31
  Q 174.45 140.88 178.15 134.43
  C 184.76 122.89 187.85 111.99 186.99 98.92
  C 186.46 90.86 183.35 82.85 179.55 75.63
  C 175.87 68.61 169.72 62.01 164.11 57.94
  C 149.02 46.99 129.46 48.18 111.87 48.57
  C 104.84 48.73 97.54 50.45 92.69 54.38
  Q 87.74 58.39 83.05 66.10
  A 5.72 5.54 -23.2 0 0 82.44 67.56
  Q 80.51 74.83 80.52 82.50
  Q 80.58 128.68 80.59 190.49
  C 80.59 198.31 85.04 204.21 92.21 207.27
  C 100.80 210.94 110.66 205.77 114.42 197.91
  Q 116.20 194.18 116.07 186.45
  Q 115.92 177.92 115.47 174.78
  A 3.16 3.16 0.0 0 0 113.05 172.17
  Q 110.60 171.61 106.88 171.98"
/>
<path fill="#262522" d="
  M 132.21 0.00
  Q 139.64 0.28 147.01 0.95
  Q 150.24 1.24 153.18 2.13
  C 158.36 3.70 163.61 5.00 168.28 6.81
  C 174.76 9.33 179.62 10.44 185.16 13.41
  Q 196.70 19.58 201.50 23.27
  Q 210.38 30.08 215.68 34.57
  C 222.78 40.59 228.52 48.51 234.52 56.88
  C 239.43 63.72 241.95 70.32 246.24 78.40
  Q 248.15 82.00 249.98 88.46
  Q 251.87 95.09 253.92 101.66
  Q 255.57 106.96 256.00 119.49
  L 256.00 141.23
  C 255.65 145.25 255.43 149.48 254.41 153.24
  Q 252.48 160.38 251.37 164.70
  Q 250.55 167.96 249.64 169.97
  C 247.65 174.33 246.72 178.75 244.63 182.88
  Q 238.23 195.57 234.00 201.05
  C 226.66 210.55 220.52 219.36 211.60 226.09
  C 204.53 231.42 197.96 236.47 189.72 240.61
  Q 175.21 247.90 173.56 248.50
  Q 166.01 251.20 150.93 254.46
  C 146.65 255.38 141.73 255.59 137.11 256.00
  L 121.79 256.00
  Q 112.07 256.06 106.31 254.93
  Q 97.20 253.15 83.27 248.33
  Q 75.39 245.61 68.77 241.94
  Q 59.24 236.66 55.23 233.51
  C 47.02 227.07 42.60 224.04 37.20 218.64
  C 31.55 213.00 27.43 207.01 22.44 199.99
  C 17.70 193.31 15.16 187.07 10.85 178.68
  C 7.59 172.32 6.21 165.18 3.63 157.42
  Q 0.82 148.96 0.00 140.12
  L 0.00 121.11
  Q 0.42 116.40 0.60 111.66
  Q 0.67 109.73 2.48 102.95
  Q 5.17 92.91 9.90 80.10
  C 15.55 64.78 25.26 51.99 35.64 40.14
  Q 40.40 34.71 46.86 29.86
  Q 59.90 20.08 63.03 18.53
  Q 69.34 15.39 76.82 11.58
  Q 81.99 8.94 86.20 7.71
  Q 95.37 5.04 104.26 2.23
  C 109.74 0.51 115.39 0.21 121.14 0.00
  L 132.21 0.00
  Z
  M 106.88 171.98
  C 105.46 172.12 105.02 173.36 104.90 174.66
  Q 104.48 179.28 104.58 185.32
  C 104.64 188.98 104.18 195.53 99.48 196.37
  C 95.47 197.08 92.58 193.79 92.53 189.74
  Q 92.24 161.95 92.30 116.75
  Q 92.34 90.76 92.25 85.00
  C 92.10 75.66 92.22 68.01 101.36 63.11
  Q 105.33 60.98 109.03 60.70
  Q 122.17 59.72 136.30 60.84
  C 142.65 61.35 148.86 62.92 153.21 65.85
  C 158.78 69.61 162.83 72.26 166.79 78.04
  Q 176.07 91.56 175.30 107.45
  C 175.06 112.38 173.88 115.72 171.98 120.24
  Q 164.97 136.93 148.60 143.87
  C 141.40 146.92 133.46 147.33 125.26 147.19
  C 121.19 147.12 118.03 147.25 117.13 142.92
  Q 116.62 140.48 117.05 137.43
  C 117.52 134.15 119.69 135.20 122.00 134.64
  Q 122.37 134.55 130.68 134.57
  Q 136.86 134.59 139.31 134.07
  Q 149.46 131.92 156.29 124.07
  Q 158.78 121.21 161.28 114.88
  C 166.26 102.29 162.17 88.82 152.31 79.98
  C 143.62 72.20 135.20 72.76 122.99 72.91
  Q 117.95 72.98 111.32 76.62
  A 4.67 4.66 -86.2 0 0 109.84 77.92
  Q 105.93 83.23 104.73 87.50
  C 101.97 97.27 108.42 105.31 117.33 109.66
  C 122.27 112.06 131.39 106.13 126.64 100.02
  C 124.94 97.83 119.76 96.93 116.97 95.32
  A 1.58 1.55 2.3 0 1 116.34 94.65
  Q 115.98 93.94 116.43 91.42
  Q 117.05 87.96 117.69 87.12
  A 2.17 2.12 5.2 0 1 118.50 86.46
  Q 119.94 85.78 123.26 85.48
  C 128.82 84.99 135.55 84.71 140.07 86.70
  C 144.23 88.52 148.36 91.98 150.11 96.49
  Q 155.01 109.17 144.31 118.88
  Q 140.81 122.05 135.63 122.38
  Q 130.42 122.71 120.00 122.74
  C 115.25 122.76 111.70 125.53 108.53 128.98
  Q 104.05 133.85 104.27 140.77
  C 104.43 145.95 106.65 153.07 111.40 155.78
  C 117.62 159.33 122.35 159.47 130.98 159.42
  Q 152.93 159.28 168.11 146.31
  Q 174.45 140.88 178.15 134.43
  C 184.76 122.89 187.85 111.99 186.99 98.92
  C 186.46 90.86 183.35 82.85 179.55 75.63
  C 175.87 68.61 169.72 62.01 164.11 57.94
  C 149.02 46.99 129.46 48.18 111.87 48.57
  C 104.84 48.73 97.54 50.45 92.69 54.38
  Q 87.74 58.39 83.05 66.10
  A 5.72 5.54 -23.2 0 0 82.44 67.56
  Q 80.51 74.83 80.52 82.50
  Q 80.58 128.68 80.59 190.49
  C 80.59 198.31 85.04 204.21 92.21 207.27
  C 100.80 210.94 110.66 205.77 114.42 197.91
  Q 116.20 194.18 116.07 186.45
  Q 115.92 177.92 115.47 174.78
  A 3.16 3.16 0.0 0 0 113.05 172.17
  Q 110.60 171.61 106.88 171.98
  Z"
/>
<path fill="#fec637" d="
  M 104.90 174.66
  C 105.02 173.36 105.46 172.12 106.88 171.98
  Q 110.60 171.61 113.05 172.17
  A 3.16 3.16 0.0 0 1 115.47 174.78
  Q 115.92 177.92 116.07 186.45
  Q 116.20 194.18 114.42 197.91
  C 110.66 205.77 100.80 210.94 92.21 207.27
  C 85.04 204.21 80.59 198.31 80.59 190.49
  Q 80.58 128.68 80.52 82.50
  Q 80.51 74.83 82.44 67.56
  A 5.72 5.54 -23.2 0 1 83.05 66.10
  Q 87.74 58.39 92.69 54.38
  C 97.54 50.45 104.84 48.73 111.87 48.57
  C 129.46 48.18 149.02 46.99 164.11 57.94
  C 169.72 62.01 175.87 68.61 179.55 75.63
  C 183.35 82.85 186.46 90.86 186.99 98.92
  C 187.85 111.99 184.76 122.89 178.15 134.43
  Q 174.45 140.88 168.11 146.31
  Q 152.93 159.28 130.98 159.42
  C 122.35 159.47 117.62 159.33 111.40 155.78
  C 106.65 153.07 104.43 145.95 104.27 140.77
  Q 104.05 133.85 108.53 128.98
  C 111.70 125.53 115.25 122.76 120.00 122.74
  Q 130.42 122.71 135.63 122.38
  Q 140.81 122.05 144.31 118.88
  Q 155.01 109.17 150.11 96.49
  C 148.36 91.98 144.23 88.52 140.07 86.70
  C 135.55 84.71 128.82 84.99 123.26 85.48
  Q 119.94 85.78 118.50 86.46
  A 2.17 2.12 5.2 0 0 117.69 87.12
  Q 117.05 87.96 116.43 91.42
  Q 115.98 93.94 116.34 94.65
  A 1.58 1.55 2.3 0 0 116.97 95.32
  C 119.76 96.93 124.94 97.83 126.64 100.02
  C 131.39 106.13 122.27 112.06 117.33 109.66
  C 108.42 105.31 101.97 97.27 104.73 87.50
  Q 105.93 83.23 109.84 77.92
  A 4.67 4.66 -86.2 0 1 111.32 76.62
  Q 117.95 72.98 122.99 72.91
  C 135.20 72.76 143.62 72.20 152.31 79.98
  C 162.17 88.82 166.26 102.29 161.28 114.88
  Q 158.78 121.21 156.29 124.07
  Q 149.46 131.92 139.31 134.07
  Q 136.86 134.59 130.68 134.57
  Q 122.37 134.55 122.00 134.64
  C 119.69 135.20 117.52 134.15 117.05 137.43
  Q 116.62 140.48 117.13 142.92
  C 118.03 147.25 121.19 147.12 125.26 147.19
  C 133.46 147.33 141.40 146.92 148.60 143.87
  Q 164.97 136.93 171.98 120.24
  C 173.88 115.72 175.06 112.38 175.30 107.45
  Q 176.07 91.56 166.79 78.04
  C 162.83 72.26 158.78 69.61 153.21 65.85
  C 148.86 62.92 142.65 61.35 136.30 60.84
  Q 122.17 59.72 109.03 60.70
  Q 105.33 60.98 101.36 63.11
  C 92.22 68.01 92.10 75.66 92.25 85.00
  Q 92.34 90.76 92.30 116.75
  Q 92.24 161.95 92.53 189.74
  C 92.58 193.79 95.47 197.08 99.48 196.37
  C 104.18 195.53 104.64 188.98 104.58 185.32
  Q 104.48 179.28 104.90 174.66
  Z"
/>
</svg>